<svg width="36" height="36" viewBox="0 0 36 36" fill="none" xmlns="http://www.w3.org/2000/svg">
<path d="M16.1427 8.8291C18.9616 8.8291 20.709 9.55802 21.8796 10.6088C23.0602 11.6687 23.6972 13.0926 24.2221 14.5767C24.3358 14.8979 24.4483 15.2345 24.5606 15.5704C24.6984 15.9832 24.836 16.3947 24.9746 16.7747C25.2333 17.4834 25.5235 18.1653 25.9052 18.7577C26.289 19.3533 26.7694 19.865 27.4101 20.2257C27.9394 20.5235 28.5633 20.7099 29.3069 20.7658C27.8415 24.6808 26.1001 27.0905 24.0169 28.5368C21.8571 30.0361 19.2815 30.5341 16.1427 30.5341C13.0378 30.5341 10.2501 29.5951 8.24443 27.8732C6.24448 26.1562 5 23.6431 5 20.4389C5 14.0139 10.0016 8.8291 16.1427 8.8291Z" fill="white" stroke="#0D0A1A" stroke-width="0.689261"/>
<path d="M25.6789 7.81165L25.3237 7.66561L25.2169 8.03461L25.5479 8.13041C25.2169 8.03461 25.2168 8.0348 25.2168 8.0348L25.2167 8.03505L25.2166 8.03573L25.2159 8.03786L25.2139 8.04504C25.2122 8.05113 25.2098 8.05978 25.2068 8.07089C25.2007 8.0931 25.1922 8.12517 25.1817 8.16616C25.161 8.24813 25.1328 8.36598 25.1019 8.51244C25.0403 8.80491 24.9681 9.21381 24.9256 9.68033C24.8419 10.5997 24.8674 11.8014 25.3746 12.7682C25.4203 12.8554 25.4355 12.9449 25.427 13.015C25.4192 13.0802 25.3926 13.1247 25.3504 13.1557C24.359 13.8808 21.4284 15.5803 15.9196 15.3576C9.97345 15.1172 7.2456 12.8889 6.56837 12.236C6.532 12.201 6.50606 12.132 6.52275 12.0513C7.14646 9.03565 8.61356 6.98889 10.5098 5.61342C12.4143 4.23198 14.7715 3.51383 17.1863 3.20054C22.0211 2.5733 26.9914 3.58017 28.7481 3.9981C28.8896 4.03174 28.9628 4.17483 28.8948 4.31761C28.5804 4.97816 28.0394 6.01355 27.4093 6.80551C27.093 7.20295 26.7714 7.5171 26.4633 7.69774C26.1619 7.8746 25.9083 7.90589 25.6789 7.81165Z" fill="#0D0A1A" stroke="#0D0A1A" stroke-width="0.689261"/>
<path d="M13.3406 18.6528H13.3406C12.6315 18.6528 12.0566 19.2277 12.0566 19.9368V21.3138C12.0566 22.0229 12.6315 22.5977 13.3406 22.5977H13.3406C14.0497 22.5977 14.6245 22.0229 14.6245 21.3138V19.9368C14.6245 19.2277 14.0497 18.6528 13.3406 18.6528Z" fill="#0D0A1A"/>
<path d="M9.37388 19.8251C9.37388 19.1777 8.84903 18.6528 8.20159 18.6528C7.55415 18.6528 7.0293 19.1777 7.0293 19.8251V21.4254C7.0293 22.0728 7.55415 22.5977 8.20159 22.5977C8.84903 22.5977 9.37388 22.0728 9.37388 21.4254V19.8251Z" fill="#0D0A1A"/>
<path d="M21.2695 27.0918L17.4283 33.1646" stroke="#0D0A1A" stroke-width="2.35955" stroke-linecap="round"/>
<path d="M21.2695 27.0918L17.4283 33.1646" stroke="white" stroke-width="1.23596" stroke-linecap="round"/>
<path d="M18.102 26.4905C20.115 29.878 24.4929 30.9924 27.8804 28.9794C31.2679 26.9665 32.3823 22.5886 30.3693 19.201C28.3564 15.8135 23.9785 14.6992 20.591 16.7121C17.2034 18.725 16.0891 23.103 18.102 26.4905Z" fill="#FF4FB3" stroke="#0D0A1A" stroke-width="0.966292"/>
<mask id="mask0_376_87" style="mask-type:luminance" maskUnits="userSpaceOnUse" x="17" y="15" width="15" height="15">
<path d="M18.3438 26.3473C20.2775 29.6014 24.4831 30.6719 27.7373 28.7382C30.9914 26.8045 32.0619 22.599 30.1282 19.3448C28.1945 16.0907 23.9889 15.0202 20.7348 16.9539C17.4806 18.8876 16.4102 23.0931 18.3438 26.3473Z" fill="white"/>
</mask>
<g mask="url(#mask0_376_87)">
<path opacity="0.72" d="M19.8895 25.429C21.316 27.8296 24.4185 28.6192 26.8191 27.1928C29.2197 25.7663 30.0094 22.6638 28.5829 20.2632C27.1564 17.8626 24.0539 17.0729 21.6533 18.4994C19.2527 19.9259 18.463 23.0283 19.8895 25.429Z" fill="#FF74C7"/>
<path d="M24.4652 23.2324L24.4447 23.2772L24.4187 23.3214L24.3866 23.364L24.3482 23.4051L24.3045 23.4415L24.2547 23.4764L24.1998 23.5051L24.1402 23.53L24.0771 23.5492L24.009 23.5622L23.9379 23.5679L23.8643 23.5672L23.7891 23.5596L23.7129 23.5434L23.6361 23.5198L23.5592 23.4871L23.4842 23.4467L23.4121 23.398L23.342 23.3417L23.2758 23.2764L23.2147 23.2043L23.1586 23.1252L23.1094 23.0381L23.0674 22.9455L23.0326 22.8472L23.0074 22.7433L22.9905 22.6357L22.9829 22.5239L22.9866 22.4092L23.0004 22.2939L23.0252 22.1772L23.0606 22.0608L23.1062 21.9461L23.1645 21.833L23.2331 21.7243L23.3137 21.6202L23.4038 21.5209L23.5049 21.4294L23.6142 21.3449L23.7342 21.2697L23.8618 21.203L23.9973 21.1473L24.1388 21.1038L24.2871 21.0719L24.4398 21.0517L24.5961 21.0464L24.7548 21.054L24.9141 21.0757L25.0729 21.112L25.2322 21.1624L25.3877 21.2282L25.5396 21.3079L25.6854 21.4015L25.8243 21.5099L25.956 21.6303L26.0785 21.764L26.1899 21.9095L26.29 22.067L26.3777 22.2344L26.45 22.4111L26.5087 22.5957L26.5518 22.7871L26.5788 22.9841L26.5893 23.1844L26.5815 23.389L26.5565 23.5933L26.5129 23.797L26.4515 23.9995L26.3722 24.1982L26.2749 24.3907L26.16 24.5779L26.0278 24.7557L25.8803 24.9231L25.7152 25.0787L25.5367 25.2227L25.345 25.351L25.1401 25.4636L24.9239 25.5594L24.6973 25.6378L24.4633 25.6971L24.2223 25.7358L23.9773 25.7546L23.7278 25.7526L23.4781 25.7284L23.2274 25.6826L22.9797 25.6155L22.7369 25.5258L22.5002 25.4155L22.2705 25.2841L22.0518 25.1317L21.8448 24.9593L21.6506 24.7689L21.4733 24.5606L21.3108 24.3356L21.1685 24.096L21.0453 23.8425L20.9439 23.5773L20.8639 23.302L20.8075 23.0179L20.7749 22.7276L20.7671 22.4329L20.7849 22.1374L20.8278 21.84L20.8967 21.5469L20.991 21.2569L21.1105 20.9741L21.2548 20.7001L21.4226 20.437L21.6141 20.1874L21.8278 19.9532L22.0625 19.7366L22.3171 19.5383L22.5894 19.3608L22.8779 19.2063L23.1808 19.076L23.4961 18.971L23.821 18.893L24.1553 18.842L24.4938 18.8199L24.8358 18.8258L25.1794 18.8608L25.5212 18.9257L25.858 19.0196L26.188 19.1437L26.5083 19.2958L26.8176 19.4754L27.1123 19.6832L27.3902 19.9154L27.6502 20.1726L27.8877 20.4536L28.1031 20.7544L28.2926 21.0756L28.4552 21.413L28.5907 21.7664L28.6953 22.1316L28.7694 22.5071L28.8129 22.8904L28.8224 23.2781L28.7994 23.6682L28.744 24.0567L28.6541 24.442L28.5314 24.8208L28.3759 25.1903L28.1892 25.5469L27.9717 25.8892L27.7237 26.213L27.4476 26.5182L27.1456 26.7996L26.8181 27.0557L26.4679 27.2846L26.0981 27.4848L25.7098 27.6541L25.3061 27.7907L24.8899 27.893L24.4645 27.9602L24.0325 27.9921L23.5963 27.986L23.1594 27.9436L22.7264 27.8637L22.2977 27.7473L21.8785 27.5938L21.4718 27.4042L21.0812 27.1802L20.7082 26.9221L20.3551 26.6314L20.0275 26.3111L19.7261 25.9621L19.4545 25.5864L19.2128 25.1863L19.0049 24.7661L18.833 24.3272L18.6977 23.873L18.6009 23.4064L18.5441 22.9304L18.5273 22.449L18.5511 21.9656L18.6164 21.4838L18.7223 21.0065L18.869 20.5364" stroke="#F12E91" stroke-width="1.79775" stroke-linecap="round" stroke-linejoin="round"/>
<path opacity="0.93" d="M24.2581 17.6046C25.8582 17.438 27.1475 17.8482 28.2619 18.6237" stroke="white" stroke-width="1.46067" stroke-linecap="round"/>
<path opacity="0.93" d="M21.9113 19.2617C22.149 19.6618 22.6661 19.7934 23.0662 19.5556C23.4663 19.3179 23.5979 18.8008 23.3602 18.4007C23.1224 18.0006 22.6053 17.869 22.2052 18.1067C21.8051 18.3445 21.6735 18.8616 21.9113 19.2617Z" fill="white"/>
</g>
<path d="M18.102 26.4905C20.115 29.878 24.4929 30.9924 27.8804 28.9794C31.2679 26.9665 32.3823 22.5886 30.3693 19.201C28.3564 15.8135 23.9785 14.6992 20.591 16.7121C17.2034 18.725 16.0891 23.103 18.102 26.4905Z" stroke="#0D0A1A" stroke-width="0.966292"/>
</svg>
