<svg width="16" height="16" viewBox="0 0 16 16" fill="none" xmlns="http://www.w3.org/2000/svg">
<path d="M7.17497 3.92383C8.4278 3.92383 9.20443 4.24779 9.72468 4.71481C10.2494 5.18587 10.5325 5.81871 10.7658 6.47831C10.8164 6.62108 10.8664 6.77069 10.9162 6.91995C10.9775 7.10342 11.0386 7.28629 11.1003 7.45518C11.2152 7.77019 11.3442 8.07326 11.5138 8.33653C11.6844 8.60125 11.898 8.82867 12.1827 8.98897C12.418 9.12135 12.6952 9.2042 13.0257 9.22902C12.3744 10.969 11.6005 12.04 10.6746 12.6828C9.71469 13.3492 8.56997 13.5705 7.17497 13.5705C5.795 13.5705 4.55604 13.1532 3.66462 12.3879C2.77576 11.6248 2.22266 10.5078 2.22266 9.08375C2.22266 6.22817 4.44559 3.92383 7.17497 3.92383Z" fill="white" stroke="#0D0A1A" stroke-width="0.689261"/>
<path d="M11.4126 3.47201L11.2547 3.4071L11.2073 3.5711L11.3544 3.61368C11.2073 3.5711 11.2072 3.57118 11.2072 3.57118L11.2072 3.57129L11.2071 3.5716L11.2068 3.57254L11.206 3.57573C11.2052 3.57844 11.2042 3.58229 11.2028 3.58722C11.2001 3.5971 11.1963 3.61135 11.1917 3.62957C11.1824 3.666 11.1699 3.71838 11.1562 3.78347C11.1288 3.91346 11.0967 4.09519 11.0778 4.30253C11.0406 4.71113 11.0519 5.24523 11.2774 5.67493C11.2977 5.71366 11.3044 5.75344 11.3007 5.78461C11.2972 5.8136 11.2854 5.83337 11.2666 5.84712C10.826 6.16942 9.5235 6.92473 7.07516 6.82575C4.43243 6.71894 3.22005 5.72854 2.91906 5.43841C2.90289 5.42282 2.89136 5.39217 2.89879 5.35628C3.17599 4.01601 3.82803 3.10634 4.67081 2.49501C5.51723 1.88104 6.5649 1.56187 7.63816 1.42263C9.78692 1.14385 11.996 1.59135 12.7767 1.7771C12.8396 1.79205 12.8721 1.85564 12.8419 1.9191C12.7022 2.21268 12.4617 2.67285 12.1817 3.02483C12.0411 3.20147 11.8982 3.3411 11.7613 3.42138C11.6273 3.49998 11.5146 3.51389 11.4126 3.47201Z" fill="#0D0A1A" stroke="#0D0A1A" stroke-width="0.689261"/>
<path d="M5.93002 8.29004H5.93001C5.61486 8.29004 5.35938 8.54552 5.35938 8.86068V9.47267C5.35938 9.78782 5.61486 10.0433 5.93001 10.0433H5.93002C6.24517 10.0433 6.50065 9.78782 6.50065 9.47267V8.86068C6.50065 8.54552 6.24517 8.29004 5.93002 8.29004Z" fill="#0D0A1A"/>
<path d="M4.16704 8.81106C4.16704 8.52331 3.93377 8.29004 3.64602 8.29004C3.35827 8.29004 3.125 8.52331 3.125 8.81106V9.52229C3.125 9.81004 3.35827 10.0433 3.64602 10.0433C3.93377 10.0433 4.16704 9.81004 4.16704 9.52229V8.81106Z" fill="#0D0A1A"/>
<path d="M9.45312 12.0405L7.74589 14.7396" stroke="#0D0A1A" stroke-width="2.35955" stroke-linecap="round"/>
<path d="M9.45312 12.0405L7.74589 14.7396" stroke="white" stroke-width="1.23596" stroke-linecap="round"/>
<path d="M8.04665 11.7734C8.94128 13.279 10.887 13.7743 12.3926 12.8796C13.8982 11.985 14.3934 10.0393 13.4988 8.53369C12.6042 7.02812 10.6584 6.53286 9.15284 7.4275C7.64727 8.32213 7.15201 10.2679 8.04665 11.7734Z" fill="#FF4FB3" stroke="#0D0A1A" stroke-width="0.966292"/>
<mask id="mask0_376_106" style="mask-type:luminance" maskUnits="userSpaceOnUse" x="7" y="7" width="7" height="7">
<path d="M8.18516 11.7411C9.06171 13.1702 10.9309 13.6181 12.36 12.7415C13.7892 11.8649 14.2371 9.99576 13.3606 8.56664C12.484 7.13753 10.6149 6.68962 9.18573 7.56621C7.75658 8.44281 7.30861 10.312 8.18516 11.7411Z" fill="white"/>
</mask>
<g mask="url(#mask0_376_106)">
<path opacity="0.72" d="M8.86507 11.3243C9.51179 12.3786 10.8907 12.7092 11.9449 12.0626C12.9991 11.416 13.3294 10.0371 12.6827 8.9828C12.036 7.92845 10.6571 7.59789 9.6029 8.24447C8.54869 8.89106 8.21835 10.2699 8.86507 11.3243Z" fill="#FF74C7"/>
<path d="M10.8741 10.3213L10.8653 10.3413L10.8541 10.361L10.8401 10.3801L10.8234 10.3985L10.8042 10.4149L10.7824 10.4307L10.7583 10.4437L10.732 10.4551L10.7042 10.464L10.6741 10.4702L10.6426 10.4731L10.61 10.4733L10.5767 10.4704L10.5428 10.4637L10.5087 10.4537L10.4744 10.4397L10.4409 10.4223L10.4087 10.4012L10.3773 10.3766L10.3476 10.3482L10.32 10.3166L10.2947 10.2819L10.2724 10.2437L10.2532 10.2029L10.2371 10.1596L10.2253 10.1137L10.2172 10.0662L10.2131 10.0167L10.2141 9.96593L10.2195 9.91476L10.2297 9.86295L10.2447 9.81118L10.2641 9.76013L10.2892 9.70971L10.319 9.66112L10.354 9.61453L10.3933 9.57003L10.4375 9.52889L10.4854 9.4908L10.5381 9.45675L10.5942 9.42643L10.6539 9.40093L10.7162 9.38079L10.7817 9.36573L10.8493 9.35586L10.9184 9.35255L10.9888 9.35494L11.0595 9.36356L11.1301 9.37867L11.201 9.4L11.2702 9.42818L11.338 9.46251L11.4032 9.5031L11.4653 9.5502L11.5244 9.60271L11.5795 9.66115L11.6298 9.72492L11.6751 9.79404L11.715 9.86764L11.7481 9.9454L11.7753 10.0268L11.7956 10.1113L11.8087 10.1984L11.8146 10.287L11.8124 10.3776L11.8027 10.4683L11.7846 10.5587L11.7587 10.6487L11.7248 10.7372L11.6829 10.8231L11.6332 10.9067L11.5757 10.9862L11.5114 11.0613L11.4393 11.1312L11.3611 11.196L11.277 11.254L11.187 11.3051L11.0918 11.3489L10.9919 11.385L10.8886 11.4127L10.7821 11.4313L10.6737 11.4412L10.5632 11.4418L10.4525 11.4326L10.3411 11.4139L10.231 11.3857L10.1229 11.3475L10.0173 11.3001L9.91477 11.2433L9.81698 11.1772L9.72422 11.1022L9.63702 11.019L9.55716 10.9279L9.48381 10.8293L9.41926 10.7241L9.36311 10.6126L9.31655 10.4958L9.27942 10.3743L9.25267 10.2489L9.23638 10.1205L9.23109 9.9901L9.23715 9.85913L9.25429 9.72721L9.28298 9.59696L9.32294 9.46797L9.37412 9.34203L9.43635 9.21982L9.50903 9.10229L9.59227 8.99055L9.68549 8.88554L9.78808 8.7882L9.89962 8.6988L10.0191 8.61854L10.146 8.54836L10.2793 8.48879L10.4183 8.44034L10.5617 8.4038L10.7095 8.37916L10.8593 8.3673L11.0108 8.3678L11.1632 8.38118L11.315 8.40779L11.4648 8.4473L11.6117 8.50025L11.7545 8.5656L11.8927 8.6432L12.0245 8.73341L12.149 8.83453L12.2658 8.94682L12.3727 9.06978L12.47 9.20163L12.556 9.34272L12.6301 9.49109L12.6923 9.64674L12.7409 9.80781L12.7761 9.97363L12.7977 10.1431L12.8044 10.3147L12.7966 10.4876L12.7744 10.6599L12.737 10.8311L12.6851 10.9996L12.6185 11.1642L12.538 11.3232L12.4438 11.4761L12.336 11.6211L12.2156 11.7579L12.0836 11.8844L11.9401 11.9998L11.7864 12.1033L11.6239 12.1942L11.453 12.2716L11.275 12.3346L11.0912 12.3824L10.9033 12.4148L10.7121 12.4316L10.5189 12.4316L10.3251 12.4155L10.1328 12.3828L9.94221 12.3339L9.75556 12.2685L9.57421 12.1871L9.3998 12.0903L9.23302 11.9783L9.07479 11.8517L8.9277 11.7119L8.79201 11.5593L8.66935 11.3946L8.55981 11.2189L8.46513 11.0341L8.38623 10.8408L8.32349 10.6405L8.27767 10.4345L8.24957 10.2241L8.23912 10.011L8.24666 9.79684L8.27256 9.58308L8.31649 9.3711L8.37855 9.16202" stroke="#F12E91" stroke-width="1.79775" stroke-linecap="round" stroke-linejoin="round"/>
<path opacity="0.93" d="M10.7838 7.83756C11.4914 7.75389 12.065 7.92757 12.5633 8.26415" stroke="white" stroke-width="1.46067" stroke-linecap="round"/>
<path opacity="0.93" d="M9.74249 8.56438C9.85027 8.74011 10.0801 8.7952 10.2558 8.68744C10.4315 8.57967 10.4865 8.34986 10.3788 8.17413C10.271 7.99841 10.0412 7.94332 9.86546 8.05108C9.68976 8.15884 9.6347 8.38866 9.74249 8.56438Z" fill="white"/>
</g>
<path d="M8.04665 11.7734C8.94128 13.279 10.887 13.7743 12.3926 12.8796C13.8982 11.985 14.3934 10.0393 13.4988 8.53369C12.6042 7.02812 10.6584 6.53286 9.15284 7.4275C7.64727 8.32213 7.15201 10.2679 8.04665 11.7734Z" stroke="#0D0A1A" stroke-width="0.966292"/>
</svg>
