<svg width="16" height="16" viewBox="0 0 16 16" fill="none" xmlns="http://www.w3.org/2000/svg">
<path d="M7.95231 4.59033C9.20514 4.59033 9.98177 4.91429 10.502 5.38131C11.0267 5.85237 11.3098 6.48521 11.5431 7.14481C11.5937 7.28758 11.6437 7.43719 11.6935 7.58645C11.7548 7.76992 11.8159 7.95279 11.8776 8.12168C11.9925 8.43669 12.1215 8.73976 12.2911 9.00303C12.4617 9.26775 12.6753 9.49517 12.96 9.65547C13.1953 9.78785 13.4725 9.8707 13.803 9.89552C13.1517 11.6355 12.3778 12.7065 11.4519 13.3493C10.492 14.0157 9.34731 14.237 7.95231 14.237C6.57234 14.237 5.33338 13.8197 4.44196 13.0544C3.5531 12.2913 3 11.1743 3 9.75025C3 6.89467 5.22293 4.59033 7.95231 4.59033Z" fill="white" stroke="#0D0A1A" stroke-width="0.689261"/>
<path d="M12.1899 4.13851L12.032 4.0736L11.9846 4.2376L12.1317 4.28018C11.9846 4.2376 11.9846 4.2376 11.9846 4.2376L11.9841 4.23904L11.9833 4.24223C11.9825 4.24494 11.9815 4.24879 11.9801 4.25372C11.9774 4.2636 11.9736 4.27785 11.969 4.29607C11.9597 4.3325 11.9472 4.38488 11.9335 4.44997C11.9061 4.57996 11.874 4.76169 11.8551 4.96903C11.8179 5.37763 11.8292 5.91173 12.0547 6.34143C12.075 6.38016 12.0817 6.41994 12.078 6.45111C12.0745 6.4801 12.0627 6.49987 12.0439 6.51362C11.6033 6.83592 10.3008 7.59123 7.8525 7.49225C5.20977 7.38544 3.99739 6.39504 3.6964 6.10491C3.68023 6.08932 3.6687 6.05867 3.67613 6.02278C3.95333 4.68251 4.60537 3.77284 5.44815 3.16151C6.29457 2.54754 7.34224 2.22837 8.4155 2.08913C10.5643 1.81035 12.7733 2.25785 13.554 2.4436C13.6169 2.45855 13.6494 2.52214 13.6192 2.5856C13.4795 2.87918 13.239 3.33935 12.959 3.69133C12.8184 3.86797 12.6755 4.0076 12.5386 4.08788C12.4046 4.16648 12.2919 4.18039 12.1899 4.13851Z" fill="#0D0A1A"/>
<path d="M11.9846 4.2376L12.032 4.0736L12.1899 4.13851C12.2919 4.18039 12.4046 4.16648 12.5386 4.08788C12.6755 4.0076 12.8184 3.86797 12.959 3.69133C13.239 3.33935 13.4795 2.87918 13.6192 2.5856C13.6494 2.52214 13.6169 2.45855 13.554 2.4436C12.7733 2.25785 10.5643 1.81035 8.4155 2.08913C7.34224 2.22837 6.29457 2.54754 5.44815 3.16151C4.60537 3.77284 3.95333 4.68251 3.67613 6.02278C3.6687 6.05867 3.68023 6.08932 3.6964 6.10491C3.99739 6.39504 5.20977 7.38544 7.8525 7.49225C10.3008 7.59123 11.6033 6.83592 12.0439 6.51362C12.0627 6.49987 12.0745 6.4801 12.078 6.45111C12.0817 6.41994 12.075 6.38016 12.0547 6.34143C11.8292 5.91173 11.8179 5.37763 11.8551 4.96903C11.874 4.76169 11.9061 4.57996 11.9335 4.44997C11.9472 4.38488 11.9597 4.3325 11.969 4.29607C11.9736 4.27785 11.9774 4.2636 11.9801 4.25372C11.9815 4.24879 11.9825 4.24494 11.9833 4.24223L11.9841 4.23904L11.9846 4.2376ZM11.9846 4.2376L12.1317 4.28018C11.9846 4.2376 11.9846 4.2376 11.9846 4.2376Z" stroke="#0D0A1A" stroke-width="0.689261"/>
<path d="M6.70736 8.95654C6.39221 8.95654 6.13672 9.21202 6.13672 9.52718V10.1392C6.13672 10.4543 6.3922 10.7098 6.70735 10.7098C7.0225 10.7098 7.27799 10.4543 7.27799 10.1392V9.52718C7.27799 9.21202 7.02251 8.95654 6.70736 8.95654Z" fill="#0D0A1A"/>
<path d="M4.94438 9.47756C4.94438 9.18981 4.71111 8.95654 4.42336 8.95654C4.13561 8.95654 3.90234 9.18981 3.90234 9.47756V10.1888C3.90234 10.4765 4.13561 10.7098 4.42336 10.7098C4.71111 10.7098 4.94438 10.4765 4.94438 10.1888V9.47756Z" fill="#0D0A1A"/>
</svg>
