<svg width="13" height="13" viewBox="0 0 13 13" fill="none" xmlns="http://www.w3.org/2000/svg">
<path d="M6.46125 3.72949C7.47918 3.72949 8.11019 3.99271 8.53289 4.37216C8.95923 4.7549 9.18925 5.26908 9.3788 5.80501C9.41991 5.92101 9.46054 6.04257 9.501 6.16384C9.55081 6.31291 9.60045 6.46149 9.65058 6.59871C9.74394 6.85466 9.84875 7.1009 9.98655 7.31481C10.1252 7.5299 10.2987 7.71467 10.53 7.84492C10.7212 7.95248 10.9464 8.01979 11.215 8.03996C10.6858 9.45369 10.057 10.3239 9.3047 10.8462C8.52477 11.3876 7.59469 11.5674 6.46125 11.5674C5.34003 11.5674 4.33337 11.2284 3.60909 10.6065C2.88689 9.98653 2.4375 9.07897 2.4375 7.92193C2.4375 5.60177 4.24363 3.72949 6.46125 3.72949Z" fill="white" stroke="#0D0A1A" stroke-width="0.689261"/>
<path d="M9.90372 3.36254L9.77543 3.3098L9.73691 3.44305L9.85643 3.47765C9.73691 3.44305 9.73691 3.44305 9.73691 3.44305L9.73651 3.44422L9.73586 3.44681C9.73521 3.44902 9.73439 3.45214 9.73326 3.45615C9.73106 3.46418 9.72798 3.47576 9.72424 3.49056C9.71668 3.52016 9.70653 3.56272 9.69539 3.6156C9.67313 3.72122 9.64705 3.86888 9.63169 4.03734C9.60147 4.36933 9.61065 4.80328 9.79387 5.15241C9.81036 5.18388 9.81581 5.2162 9.8128 5.24153C9.80996 5.26508 9.80037 5.28115 9.78509 5.29232C9.42711 5.55419 8.36883 6.16788 6.37955 6.08746C4.23233 6.00067 3.24727 5.19597 3.00272 4.96024C2.98958 4.94757 2.98021 4.92267 2.98625 4.89351C3.21147 3.80454 3.74126 3.06543 4.42601 2.56873C5.11373 2.06988 5.96496 1.81055 6.83699 1.69742C8.58285 1.47091 10.3777 1.83451 11.0121 1.98543C11.0632 1.99757 11.0896 2.04924 11.065 2.1008C10.9515 2.33934 10.7561 2.71322 10.5286 2.99921C10.4144 3.14273 10.2983 3.25618 10.187 3.3214C10.0782 3.38527 9.98659 3.39657 9.90372 3.36254Z" fill="#0D0A1A"/>
<path d="M9.73691 3.44305L9.77543 3.3098L9.90372 3.36254C9.98659 3.39657 10.0782 3.38527 10.187 3.3214C10.2983 3.25618 10.4144 3.14273 10.5286 2.99921C10.7561 2.71322 10.9515 2.33934 11.065 2.1008C11.0896 2.04924 11.0632 1.99757 11.0121 1.98543C10.3777 1.83451 8.58285 1.47091 6.83699 1.69742C5.96496 1.81055 5.11373 2.06988 4.42601 2.56873C3.74126 3.06543 3.21147 3.80454 2.98625 4.89351C2.98021 4.92267 2.98958 4.94757 3.00272 4.96024C3.24727 5.19597 4.23233 6.00067 6.37955 6.08746C8.36883 6.16788 9.42711 5.55419 9.78509 5.29232C9.80037 5.28115 9.80996 5.26508 9.8128 5.24153C9.81581 5.2162 9.81036 5.18388 9.79387 5.15241C9.61065 4.80328 9.60147 4.36933 9.63169 4.03734C9.64705 3.86888 9.67313 3.72122 9.69539 3.6156C9.70653 3.56272 9.71668 3.52016 9.72424 3.49056C9.72798 3.47576 9.73106 3.46418 9.73326 3.45615C9.73439 3.45214 9.73521 3.44902 9.73586 3.44681L9.73651 3.44422L9.73691 3.44305ZM9.73691 3.44305L9.85643 3.47765C9.73691 3.44305 9.73691 3.44305 9.73691 3.44305Z" stroke="#0D0A1A" stroke-width="0.689261"/>
<path d="M5.44997 7.27734C5.19391 7.27734 4.98633 7.48492 4.98633 7.74099V8.23823C4.98633 8.49429 5.19391 8.70187 5.44997 8.70187C5.70602 8.70187 5.91361 8.49429 5.91361 8.23823V7.74099C5.91361 7.48492 5.70603 7.27734 5.44997 7.27734Z" fill="#0D0A1A"/>
<path d="M4.01658 7.70067C4.01658 7.46688 3.82705 7.27734 3.59325 7.27734C3.35945 7.27734 3.16992 7.46688 3.16992 7.70067V8.27855C3.16992 8.51234 3.35945 8.70187 3.59325 8.70187C3.82705 8.70187 4.01658 8.51234 4.01658 8.27855V7.70067Z" fill="#0D0A1A"/>
</svg>
