<svg width="13" height="13" viewBox="0 0 13 13" fill="none" xmlns="http://www.w3.org/2000/svg">
<path d="M5.82844 3.18848C6.84637 3.18848 7.47738 3.4517 7.90008 3.83115C8.32644 4.21389 8.55645 4.72807 8.74601 5.26399C8.78708 5.37999 8.82769 5.50155 8.86822 5.62283C8.91801 5.7719 8.96767 5.92048 9.01774 6.0577C9.11114 6.31365 9.21595 6.55989 9.35378 6.7738C9.49238 6.98888 9.66587 7.17366 9.89723 7.3039C10.0884 7.41146 10.3136 7.47878 10.5822 7.49894C10.053 8.91271 9.42417 9.78287 8.67189 10.3051C7.89197 10.8466 6.96188 11.0264 5.82844 11.0264C4.70721 11.0264 3.70056 10.6873 2.97629 10.0655C2.25408 9.44549 1.80469 8.53797 1.80469 7.38091C1.80469 5.06075 3.61082 3.18848 5.82844 3.18848Z" fill="white" stroke="#0D0A1A" stroke-width="0.689261"/>
<path d="M9.27289 2.82104L9.1446 2.7683L9.10605 2.90155L9.22558 2.93614C9.10605 2.90155 9.10601 2.90162 9.10601 2.90162L9.10597 2.90171L9.10593 2.90195L9.10569 2.90272L9.10496 2.90531C9.10435 2.90751 9.1035 2.91064 9.1024 2.91465C9.10021 2.92267 9.09713 2.93425 9.09335 2.94905C9.08585 2.97865 9.07566 3.02121 9.0645 3.0741C9.04227 3.17971 9.01622 3.32737 9.00084 3.49584C8.97062 3.82782 8.97983 4.26178 9.16298 4.61091C9.17949 4.64238 9.18497 4.6747 9.18193 4.70003C9.17909 4.72358 9.16951 4.73964 9.15425 4.75082C8.79627 5.01269 7.73797 5.62637 5.74869 5.54595C3.60147 5.45917 2.61641 4.65447 2.37186 4.41874C2.35872 4.40607 2.34936 4.38117 2.35539 4.35201C2.58061 3.26304 3.1104 2.52393 3.79515 2.02723C4.48287 1.52838 5.33411 1.26905 6.20613 1.15591C7.952 0.929411 9.74684 1.293 10.3812 1.44392C10.4323 1.45607 10.4587 1.50774 10.4342 1.5593C10.3206 1.79783 10.1253 2.17172 9.89774 2.45771C9.78352 2.60123 9.6674 2.71467 9.55614 2.7799C9.44728 2.84377 9.35571 2.85507 9.27289 2.82104Z" fill="#0D0A1A" stroke="#0D0A1A" stroke-width="0.689261"/>
<path d="M4.81716 6.73584H4.81716C4.5611 6.73584 4.35352 6.94342 4.35352 7.19948V7.69673C4.35352 7.95279 4.5611 8.16037 4.81716 8.16037H4.81716C5.07322 8.16037 5.2808 7.95279 5.2808 7.69673V7.19948C5.2808 6.94342 5.07322 6.73584 4.81716 6.73584Z" fill="#0D0A1A"/>
<path d="M3.38572 7.15917C3.38572 6.92537 3.19619 6.73584 2.96239 6.73584C2.72859 6.73584 2.53906 6.92537 2.53906 7.15917V7.73704C2.53906 7.97084 2.72859 8.16037 2.96239 8.16037C3.19619 8.16037 3.38572 7.97084 3.38572 7.73704V7.15917Z" fill="#0D0A1A"/>
</svg>
