<svg width="16" height="16" viewBox="0 0 16 16" fill="none" xmlns="http://www.w3.org/2000/svg">
<path d="M7.17497 3.92383C8.4278 3.92383 9.20443 4.24779 9.72468 4.71481C10.2494 5.18587 10.5325 5.81871 10.7658 6.47831C10.8164 6.62108 10.8664 6.77069 10.9162 6.91995C10.9775 7.10342 11.0386 7.28629 11.1003 7.45518C11.2152 7.77019 11.3442 8.07326 11.5138 8.33653C11.6844 8.60125 11.898 8.82867 12.1827 8.98897C12.418 9.12135 12.6952 9.2042 13.0257 9.22902C12.3744 10.969 11.6005 12.04 10.6746 12.6828C9.71469 13.3492 8.56997 13.5705 7.17497 13.5705C5.795 13.5705 4.55604 13.1532 3.66462 12.3879C2.77576 11.6248 2.22266 10.5078 2.22266 9.08375C2.22266 6.22817 4.44559 3.92383 7.17497 3.92383Z" fill="white" stroke="#0D0A1A" stroke-width="0.689261"/>
<path d="M11.4126 3.47201L11.2547 3.4071L11.2073 3.5711L11.3544 3.61368C11.2073 3.5711 11.2072 3.57118 11.2072 3.57118L11.2072 3.57129L11.2071 3.5716L11.2068 3.57254L11.206 3.57573C11.2052 3.57844 11.2042 3.58229 11.2028 3.58722C11.2001 3.5971 11.1963 3.61135 11.1917 3.62957C11.1824 3.666 11.1699 3.71838 11.1562 3.78347C11.1288 3.91346 11.0967 4.09519 11.0778 4.30253C11.0406 4.71113 11.0519 5.24523 11.2774 5.67493C11.2977 5.71366 11.3044 5.75344 11.3007 5.78461C11.2972 5.8136 11.2854 5.83337 11.2666 5.84712C10.826 6.16942 9.5235 6.92473 7.07516 6.82575C4.43243 6.71894 3.22005 5.72854 2.91906 5.43841C2.90289 5.42282 2.89136 5.39217 2.89879 5.35628C3.17599 4.01601 3.82803 3.10634 4.67081 2.49501C5.51723 1.88104 6.5649 1.56187 7.63816 1.42263C9.78692 1.14385 11.996 1.59135 12.7767 1.7771C12.8396 1.79205 12.8721 1.85564 12.8419 1.9191C12.7022 2.21268 12.4617 2.67285 12.1817 3.02483C12.0411 3.20147 11.8982 3.3411 11.7613 3.42138C11.6273 3.49998 11.5146 3.51389 11.4126 3.47201Z" fill="#0D0A1A" stroke="#0D0A1A" stroke-width="0.689261"/>
<path d="M5.93002 8.29004H5.93001C5.61486 8.29004 5.35938 8.54552 5.35938 8.86068V9.47267C5.35938 9.78782 5.61486 10.0433 5.93001 10.0433H5.93002C6.24517 10.0433 6.50065 9.78782 6.50065 9.47267V8.86068C6.50065 8.54552 6.24517 8.29004 5.93002 8.29004Z" fill="#0D0A1A"/>
<path d="M4.16704 8.81106C4.16704 8.52331 3.93377 8.29004 3.64602 8.29004C3.35827 8.29004 3.125 8.52331 3.125 8.81106V9.52229C3.125 9.81004 3.35827 10.0433 3.64602 10.0433C3.93377 10.0433 4.16704 9.81004 4.16704 9.52229V8.81106Z" fill="#0D0A1A"/>
</svg>
