<svg width="13" height="13" viewBox="0 0 13 13" fill="none" xmlns="http://www.w3.org/2000/svg">
<g clip-path="url(#clip0_376_106)">
<path d="M5.82844 3.18848C6.84637 3.18848 7.47738 3.4517 7.90008 3.83115C8.32644 4.21389 8.55645 4.72807 8.74601 5.26399C8.78708 5.37999 8.82769 5.50155 8.86822 5.62283C8.91801 5.7719 8.96767 5.92048 9.01774 6.0577C9.11114 6.31365 9.21595 6.55989 9.35378 6.7738C9.49238 6.98888 9.66587 7.17366 9.89723 7.3039C10.0884 7.41146 10.3136 7.47878 10.5822 7.49894C10.053 8.91271 9.42417 9.78287 8.67189 10.3051C7.89197 10.8466 6.96188 11.0264 5.82844 11.0264C4.70721 11.0264 3.70056 10.6873 2.97629 10.0655C2.25408 9.44549 1.80469 8.53797 1.80469 7.38091C1.80469 5.06075 3.61082 3.18848 5.82844 3.18848Z" fill="white" stroke="#0D0A1A" stroke-width="0.689261"/>
<path d="M9.27289 2.82104L9.1446 2.7683L9.10605 2.90155L9.22558 2.93614C9.10605 2.90155 9.10601 2.90162 9.10601 2.90162L9.10597 2.90171L9.10593 2.90195L9.10569 2.90272L9.10496 2.90531C9.10435 2.90751 9.1035 2.91064 9.1024 2.91465C9.10021 2.92267 9.09713 2.93425 9.09335 2.94905C9.08585 2.97865 9.07566 3.02121 9.0645 3.0741C9.04227 3.17971 9.01622 3.32737 9.00084 3.49584C8.97062 3.82782 8.97983 4.26178 9.16298 4.61091C9.17949 4.64238 9.18497 4.6747 9.18193 4.70003C9.17909 4.72358 9.16951 4.73964 9.15425 4.75082C8.79627 5.01269 7.73797 5.62637 5.74869 5.54595C3.60147 5.45917 2.61641 4.65447 2.37186 4.41874C2.35872 4.40607 2.34936 4.38117 2.35539 4.35201C2.58061 3.26304 3.1104 2.52393 3.79515 2.02723C4.48287 1.52838 5.33411 1.26905 6.20613 1.15591C7.952 0.929411 9.74684 1.293 10.3812 1.44392C10.4323 1.45607 10.4587 1.50774 10.4342 1.5593C10.3206 1.79783 10.1253 2.17172 9.89774 2.45771C9.78352 2.60123 9.6674 2.71467 9.55614 2.7799C9.44728 2.84377 9.35571 2.85507 9.27289 2.82104Z" fill="#0D0A1A" stroke="#0D0A1A" stroke-width="0.689261"/>
<path d="M4.81716 6.73584H4.81716C4.5611 6.73584 4.35352 6.94342 4.35352 7.19948V7.69673C4.35352 7.95279 4.5611 8.16037 4.81716 8.16037H4.81716C5.07322 8.16037 5.2808 7.95279 5.2808 7.69673V7.19948C5.2808 6.94342 5.07322 6.73584 4.81716 6.73584Z" fill="#0D0A1A"/>
<path d="M3.38572 7.15917C3.38572 6.92537 3.19619 6.73584 2.96239 6.73584C2.72859 6.73584 2.53906 6.92537 2.53906 7.15917V7.73704C2.53906 7.97084 2.72859 8.16037 2.96239 8.16037C3.19619 8.16037 3.38572 7.97084 3.38572 7.73704V7.15917Z" fill="#0D0A1A"/>
<path d="M7.68164 9.7832L6.29451 11.9762" stroke="#0D0A1A" stroke-width="2.35955" stroke-linecap="round"/>
<path d="M7.68164 9.7832L6.29451 11.9762" stroke="white" stroke-width="1.23596" stroke-linecap="round"/>
<path d="M6.53863 9.56599C7.26552 10.7893 8.84645 11.1917 10.0697 10.4648C11.293 9.73788 11.6954 8.15695 10.9685 6.93368C10.2416 5.71041 8.66069 5.30801 7.43741 6.0349C6.21414 6.76179 5.81174 8.34272 6.53863 9.56599Z" fill="#FF4FB3" stroke="#0D0A1A" stroke-width="0.966292"/>
<mask id="mask0_376_106" style="mask-type:luminance" maskUnits="userSpaceOnUse" x="6" y="5" width="6" height="6">
<path d="M6.65192 9.54138C7.36538 10.7013 8.88406 11.0632 10.044 10.3497C11.2039 9.63617 11.5658 8.11749 10.8524 6.95759C10.1389 5.7977 8.62024 5.43582 7.46032 6.14932C6.30039 6.86281 5.93846 8.38149 6.65192 9.54138Z" fill="white"/>
</mask>
<g mask="url(#mask0_376_106)">
<path opacity="0.72" d="M7.2024 9.20279C7.72881 10.0585 8.84915 10.3256 9.70475 9.79936C10.5603 9.2731 10.8272 8.15276 10.3008 7.29702C9.77439 6.44128 8.65406 6.17418 7.79846 6.70044C6.94286 7.22671 6.676 8.34704 7.2024 9.20279Z" fill="#FF74C7"/>
<path d="M8.83465 8.38598L8.82755 8.40221L8.81844 8.41825L8.8071 8.43377L8.79354 8.44875L8.77802 8.46209L8.76027 8.4749L8.74069 8.48551L8.71937 8.49482L8.69678 8.50207L8.67236 8.50712L8.6468 8.50954L8.62031 8.50969L8.59325 8.50735L8.56573 8.50197L8.53797 8.49389L8.51011 8.48254L8.48291 8.46842L8.45672 8.45131L8.43119 8.43142L8.40701 8.40832L8.38461 8.38271L8.36398 8.35459L8.34582 8.32352L8.33019 8.29042L8.31712 8.25528L8.30748 8.21803L8.30081 8.17942L8.29745 8.13925L8.29817 8.098L8.30249 8.05643L8.31076 8.01434L8.32285 7.97227L8.33861 7.93079L8.35896 7.88981L8.38306 7.85031L8.41149 7.81243L8.44333 7.77625L8.47922 7.74279L8.51805 7.7118L8.5608 7.68409L8.60636 7.65941L8.65481 7.63864L8.70545 7.62221L8.75863 7.60992L8.81346 7.60183L8.86966 7.59907L8.92682 7.60094L8.98424 7.60787L9.04158 7.62007L9.09918 7.63733L9.15546 7.66014L9.21055 7.68796L9.26354 7.72086L9.3141 7.75906L9.36214 7.80165L9.40697 7.84906L9.44783 7.90081L9.48472 7.9569L9.51721 8.01664L9.54419 8.07977L9.56635 8.14586L9.58292 8.21445L9.59369 8.28517L9.59858 8.35714L9.5969 8.43077L9.58905 8.5044L9.57447 8.57789L9.55352 8.65104L9.52609 8.72295L9.49213 8.7927L9.45184 8.86065L9.40527 8.92535L9.35311 8.98636L9.29459 9.04321L9.23118 9.09596L9.16292 9.14315L9.08982 9.18477L9.01255 9.22041L8.93148 9.24985L8.84762 9.27246L8.76112 9.28769L8.67308 9.29579L8.58329 9.29642L8.49335 9.28908L8.4029 9.27399L8.31341 9.25119L8.22556 9.22026L8.13978 9.18189L8.05641 9.13587L7.9769 9.08226L7.90148 9.02139L7.83056 8.95396L7.7656 8.88001L7.70592 8.79998L7.65338 8.7146L7.60765 8.62409L7.56971 8.52926L7.53942 8.43067L7.51756 8.32881L7.5042 8.22457L7.49976 8.11863L7.50454 8.01225L7.51833 7.90507L7.54149 7.79925L7.57382 7.69444L7.61525 7.59209L7.66567 7.49277L7.72459 7.39723L7.79208 7.30638L7.86768 7.22099L7.95091 7.14183L8.04142 7.0691L8.1384 7.00379L8.24135 6.94666L8.34961 6.89813L8.46247 6.85864L8.5789 6.82881L8.69891 6.80865L8.82056 6.79887L8.94364 6.79912L9.06745 6.80983L9.19077 6.83129L9.31247 6.86323L9.43186 6.90609L9.54796 6.95903L9.66023 7.02192L9.7674 7.09506L9.86865 7.17706L9.96361 7.26815L10.0506 7.36792L10.1298 7.47491L10.1997 7.58942L10.2601 7.70986L10.3108 7.83622L10.3504 7.96701L10.3792 8.10165L10.3969 8.23926L10.4025 8.37866L10.3964 8.51909L10.3786 8.6591L10.3484 8.7982L10.3064 8.93507L10.2524 9.06881L10.1872 9.19811L10.1109 9.32239L10.0235 9.44021L9.92581 9.55149L9.81872 9.65434L9.7023 9.74822L9.57759 9.83248L9.44563 9.90649L9.30689 9.96949L9.16241 10.0208L9.01321 10.0599L8.86054 10.0864L8.70531 10.1002L8.54833 10.1004L8.39093 10.0875L8.23469 10.0612L8.07984 10.0216L7.92816 9.96872L7.78078 9.90274L7.63901 9.8243L7.50342 9.73352L7.37476 9.63088L7.25514 9.51746L7.14477 9.39362L7.04496 9.25996L6.9558 9.11738L6.8787 8.96739L6.81441 8.81046L6.76323 8.64785L6.72581 8.48058L6.70276 8.30969L6.69404 8.13663L6.69994 7.96266L6.72076 7.789L6.75622 7.61678L6.8064 7.44689" stroke="#F12E91" stroke-width="1.79775" stroke-linecap="round" stroke-linejoin="round"/>
<path opacity="0.93" d="M8.76116 6.36891C9.33579 6.30023 9.80183 6.44072 10.207 6.7136" stroke="white" stroke-width="1.46067" stroke-linecap="round"/>
<path opacity="0.93" d="M7.9159 6.95868C8.00363 7.10131 8.19035 7.14582 8.33295 7.05811C8.47555 6.9704 8.52003 6.78368 8.4323 6.64106C8.34456 6.49843 8.15784 6.45392 8.01524 6.54163C7.87264 6.62934 7.82816 6.81606 7.9159 6.95868Z" fill="white"/>
</g>
<path d="M6.53863 9.56599C7.26552 10.7893 8.84645 11.1917 10.0697 10.4648C11.293 9.73788 11.6954 8.15695 10.9685 6.93368C10.2416 5.71041 8.66069 5.30801 7.43741 6.0349C6.21414 6.76179 5.81174 8.34272 6.53863 9.56599Z" stroke="#0D0A1A" stroke-width="0.966292"/>
</g>
<defs>
<clipPath id="clip0_376_106">
<rect width="13" height="13" fill="white"/>
</clipPath>
</defs>
</svg>
